<svg xmlns="http://www.w3.org/2000/svg" xmlns:xlink="http://www.w3.org/1999/xlink" width="500" zoomAndPan="magnify" viewBox="0 0 375 374.999991" height="500" preserveAspectRatio="xMidYMid meet" version="1.0"><defs><clipPath id="0920a09b54"><path d="M 23.4375 0 L 351.9375 0 L 351.9375 375 L 23.4375 375 Z M 23.4375 0 " clip-rule="nonzero"/></clipPath></defs><g clip-path="url(#0920a09b54)"><path fill="#e5e5e5" d="M 23.4375 0 L 351.5625 0 L 351.5625 375 L 23.4375 375 Z M 23.4375 0 " fill-opacity="1" fill-rule="nonzero"/><rect x="-37.5" width="450" fill="#ffffff" y="-37.499999" height="449.999989" fill-opacity="1"/><rect x="-37.5" width="450" fill="#ffffff" y="-37.499999" height="449.999989" fill-opacity="1"/></g><path fill="#ff6060" d="M 247.203125 245.058594 L 247.203125 330.707031 L 283.507812 309.296875 L 283.507812 223.648438 Z M 247.203125 245.058594 " fill-opacity="1" fill-rule="nonzero"/><path fill="#ff6060" d="M 347.355469 140.519531 L 198.378906 53.613281 L 115.75 5.753906 L 34.375 148.074219 L 35.628906 281.582031 L 183.355469 368.488281 L 198.378906 359.671875 L 198.378906 233.722656 L 264.730469 116.589844 L 332.332031 155.632812 L 332.332031 281.582031 L 347.355469 272.765625 Z M 347.355469 140.519531 " fill-opacity="1" fill-rule="nonzero"/></svg>